<?xml version="1.0" encoding="UTF-8"?>
<svg xmlns="http://www.w3.org/2000/svg" width="620" height="230" viewBox="0 0 620 230" role="img">
  <style>
.gate { fill: #FFFFFF; stroke: #E5E5EA; stroke-width: 2; }
  .wire { fill: none; stroke: #86868B; stroke-width: 1.75; stroke-linecap: square; stroke-linejoin: miter; }
  .bubble { fill: #FFFFFF; stroke: #E5E5EA; stroke-width: 2; }
  .lbl { fill: #1D1D1F; font-family: Inter, sans-serif; font-size: 16px; font-weight: 500; }
  .sym { fill: #1D1D1F; font-family: Inter, sans-serif; font-size: 20px; font-weight: 600; }
  .accent { stroke: #E2001A; }
  .pin { fill: #1D1D1F; font-family: Inter, sans-serif; font-size: 14px; }
  </style>
  <rect class="gate accent" x="40" y="80" width="90" height="70" rx="4" ry="4"/>
  <text class="sym" x="85.0" y="122.0" text-anchor="middle">FA0</text>
  <text class="pin" x="85.0" y="70" text-anchor="middle">A0/B0</text>
  <path class="wire" d="M 85.0 50 L 85.0 80"/>
  <path class="wire" d="M 130 115 L 180 115"/>
  <text class="pin" x="150" y="105" text-anchor="middle">Cout</text>
  <path class="wire" d="M 85.0 150 L 85.0 180"/>
  <path class="wire" d="M 80.0 172 L 85.0 180 L 90.0 172" fill="none"/>
  <text class="pin" x="85.0" y="200" text-anchor="middle">S0</text>
  <rect class="gate" x="180" y="80" width="90" height="70" rx="4" ry="4"/>
  <text class="sym" x="225.0" y="122.0" text-anchor="middle">FA1</text>
  <text class="pin" x="225.0" y="70" text-anchor="middle">A1/B1</text>
  <path class="wire" d="M 225.0 50 L 225.0 80"/>
  <path class="wire" d="M 270 115 L 320 115"/>
  <text class="pin" x="290" y="105" text-anchor="middle">Cout</text>
  <path class="wire" d="M 225.0 150 L 225.0 180"/>
  <path class="wire" d="M 220.0 172 L 225.0 180 L 230.0 172" fill="none"/>
  <text class="pin" x="225.0" y="200" text-anchor="middle">S1</text>
  <rect class="gate" x="320" y="80" width="90" height="70" rx="4" ry="4"/>
  <text class="sym" x="365.0" y="122.0" text-anchor="middle">FA2</text>
  <text class="pin" x="365.0" y="70" text-anchor="middle">A2/B2</text>
  <path class="wire" d="M 365.0 50 L 365.0 80"/>
  <path class="wire" d="M 410 115 L 460 115"/>
  <text class="pin" x="430" y="105" text-anchor="middle">Cout</text>
  <path class="wire" d="M 365.0 150 L 365.0 180"/>
  <path class="wire" d="M 360.0 172 L 365.0 180 L 370.0 172" fill="none"/>
  <text class="pin" x="365.0" y="200" text-anchor="middle">S2</text>
  <rect class="gate" x="460" y="80" width="90" height="70" rx="4" ry="4"/>
  <text class="sym" x="505.0" y="122.0" text-anchor="middle">FA3</text>
  <text class="pin" x="505.0" y="70" text-anchor="middle">A3/B3</text>
  <path class="wire" d="M 505.0 50 L 505.0 80"/>
  <path class="wire" d="M 505.0 150 L 505.0 180"/>
  <path class="wire" d="M 500.0 172 L 505.0 180 L 510.0 172" fill="none"/>
  <text class="pin" x="505.0" y="200" text-anchor="middle">S3</text>
  <text class="pin" x="30" y="120" text-anchor="end">Cin</text>
  <path class="wire" d="M 35 115 L 40 115"/>
  <text class="pin" x="580" y="120" text-anchor="start">Cout</text>
  <path class="wire" d="M 550 115 L 575 115"/>

</svg>
